<mxfile host="app.diagrams.net" agent="Mozilla/5.0 (Macintosh; Intel Mac OS X 10_15_7) AppleWebKit/537.36 (KHTML, like Gecko) Chrome/131.0.0.0 Safari/537.36" version="25.0.3">
  <diagram name="Page-1" id="U9jX6q33AUCNeVmGFycF">
    <mxGraphModel grid="1" page="1" gridSize="10" guides="1" tooltips="1" connect="1" arrows="1" fold="1" pageScale="1" pageWidth="850" pageHeight="1100" math="0" shadow="0">
      <root>
        <mxCell id="0" />
        <mxCell id="1" parent="0" />
        <mxCell id="-zqufFChfOl44uhTxaMk-2" value="&lt;div&gt;«msg broker‎»&lt;/div&gt;Event Bus" style="rounded=0;whiteSpace=wrap;html=1;" vertex="1" parent="1">
          <mxGeometry x="280" y="200" width="170" height="140" as="geometry" />
        </mxCell>
        <mxCell id="-zqufFChfOl44uhTxaMk-3" value="" style="rounded=0;orthogonalLoop=1;jettySize=auto;html=1;endArrow=halfCircle;endFill=0;endSize=6;strokeWidth=1;sketch=0;fontSize=12;curved=1;entryX=-0.026;entryY=0.539;entryDx=0;entryDy=0;entryPerimeter=0;exitX=1;exitY=0.25;exitDx=0;exitDy=0;" edge="1" parent="1" source="-zqufFChfOl44uhTxaMk-14" target="-zqufFChfOl44uhTxaMk-7">
          <mxGeometry relative="1" as="geometry">
            <mxPoint x="110" y="230" as="sourcePoint" />
            <mxPoint x="320" y="320" as="targetPoint" />
          </mxGeometry>
        </mxCell>
        <mxCell id="-zqufFChfOl44uhTxaMk-4" value="" style="ellipse;whiteSpace=wrap;html=1;align=center;aspect=fixed;fillColor=none;strokeColor=none;resizable=0;perimeter=centerPerimeter;rotatable=0;allowArrows=0;points=[];outlineConnect=1;" vertex="1" parent="1">
          <mxGeometry x="370" y="330" width="10" height="10" as="geometry" />
        </mxCell>
        <mxCell id="-zqufFChfOl44uhTxaMk-6" value="" style="rounded=0;orthogonalLoop=1;jettySize=auto;html=1;endArrow=oval;endFill=0;sketch=0;sourcePerimeterSpacing=0;targetPerimeterSpacing=0;endSize=10;exitX=0;exitY=0.25;exitDx=0;exitDy=0;" edge="1" parent="1" source="-zqufFChfOl44uhTxaMk-2" target="-zqufFChfOl44uhTxaMk-7">
          <mxGeometry relative="1" as="geometry">
            <mxPoint x="370" y="335" as="sourcePoint" />
          </mxGeometry>
        </mxCell>
        <mxCell id="-zqufFChfOl44uhTxaMk-7" value="" style="ellipse;whiteSpace=wrap;html=1;align=center;aspect=fixed;fillColor=none;strokeColor=none;resizable=0;perimeter=centerPerimeter;rotatable=0;allowArrows=0;points=[];outlineConnect=1;" vertex="1" parent="1">
          <mxGeometry x="200" y="225" width="10" height="10" as="geometry" />
        </mxCell>
        <mxCell id="-zqufFChfOl44uhTxaMk-8" value="" style="shape=module;align=left;spacingLeft=20;align=center;verticalAlign=top;whiteSpace=wrap;html=1;" vertex="1" parent="1">
          <mxGeometry x="410" y="210" width="30" height="50" as="geometry" />
        </mxCell>
        <mxCell id="-zqufFChfOl44uhTxaMk-9" value="edit msg publishing" style="text;html=1;align=center;verticalAlign=middle;whiteSpace=wrap;rounded=0;" vertex="1" parent="1">
          <mxGeometry x="190" y="245" width="60" height="30" as="geometry" />
        </mxCell>
        <mxCell id="-zqufFChfOl44uhTxaMk-11" value="" style="rounded=0;orthogonalLoop=1;jettySize=auto;html=1;endArrow=oval;endFill=0;sketch=0;sourcePerimeterSpacing=0;targetPerimeterSpacing=0;endSize=10;exitX=1;exitY=0.25;exitDx=0;exitDy=0;" edge="1" parent="1" source="-zqufFChfOl44uhTxaMk-2">
          <mxGeometry relative="1" as="geometry">
            <mxPoint x="595" y="250" as="sourcePoint" />
            <mxPoint x="520" y="230" as="targetPoint" />
          </mxGeometry>
        </mxCell>
        <mxCell id="-zqufFChfOl44uhTxaMk-13" value="edit msg list" style="text;html=1;align=center;verticalAlign=middle;whiteSpace=wrap;rounded=0;" vertex="1" parent="1">
          <mxGeometry x="490" y="240" width="60" height="30" as="geometry" />
        </mxCell>
        <mxCell id="-zqufFChfOl44uhTxaMk-14" value="&lt;div&gt;«component»&lt;/div&gt;Web Editor" style="rounded=0;whiteSpace=wrap;html=1;" vertex="1" parent="1">
          <mxGeometry y="220" width="160" height="100" as="geometry" />
        </mxCell>
        <mxCell id="-zqufFChfOl44uhTxaMk-15" value="" style="shape=module;align=left;spacingLeft=20;align=center;verticalAlign=top;whiteSpace=wrap;html=1;" vertex="1" parent="1">
          <mxGeometry x="100" y="225" width="30" height="50" as="geometry" />
        </mxCell>
        <mxCell id="-zqufFChfOl44uhTxaMk-16" value="&lt;div&gt;«component»&lt;/div&gt;Syntax analyzer" style="rounded=0;whiteSpace=wrap;html=1;" vertex="1" parent="1">
          <mxGeometry x="630" y="245" width="180" height="100" as="geometry" />
        </mxCell>
        <mxCell id="-zqufFChfOl44uhTxaMk-19" value="" style="rounded=0;orthogonalLoop=1;jettySize=auto;html=1;endArrow=oval;endFill=0;sketch=0;sourcePerimeterSpacing=0;targetPerimeterSpacing=0;endSize=10;exitX=0;exitY=0.75;exitDx=0;exitDy=0;" edge="1" parent="1" source="-zqufFChfOl44uhTxaMk-2">
          <mxGeometry relative="1" as="geometry">
            <mxPoint x="255" y="340" as="sourcePoint" />
            <mxPoint x="210" y="320" as="targetPoint" />
          </mxGeometry>
        </mxCell>
        <mxCell id="-zqufFChfOl44uhTxaMk-20" value="errors msg list" style="text;html=1;align=center;verticalAlign=middle;whiteSpace=wrap;rounded=0;" vertex="1" parent="1">
          <mxGeometry x="190" y="340" width="60" height="30" as="geometry" />
        </mxCell>
        <mxCell id="-zqufFChfOl44uhTxaMk-21" value="" style="rounded=0;orthogonalLoop=1;jettySize=auto;html=1;endArrow=halfCircle;endFill=0;endSize=6;strokeWidth=1;sketch=0;fontSize=12;curved=1;exitX=1;exitY=0.75;exitDx=0;exitDy=0;" edge="1" parent="1" source="-zqufFChfOl44uhTxaMk-14">
          <mxGeometry relative="1" as="geometry">
            <mxPoint x="160" y="290" as="sourcePoint" />
            <mxPoint x="210" y="320" as="targetPoint" />
          </mxGeometry>
        </mxCell>
        <mxCell id="-zqufFChfOl44uhTxaMk-22" value="" style="rounded=0;orthogonalLoop=1;jettySize=auto;html=1;endArrow=halfCircle;endFill=0;endSize=6;strokeWidth=1;sketch=0;fontSize=12;curved=1;exitX=0;exitY=0.25;exitDx=0;exitDy=0;" edge="1" parent="1" source="-zqufFChfOl44uhTxaMk-16">
          <mxGeometry relative="1" as="geometry">
            <mxPoint x="600" y="267.5" as="sourcePoint" />
            <mxPoint x="600" y="270" as="targetPoint" />
          </mxGeometry>
        </mxCell>
        <mxCell id="-zqufFChfOl44uhTxaMk-24" value="" style="rounded=0;orthogonalLoop=1;jettySize=auto;html=1;endArrow=oval;endFill=0;sketch=0;sourcePerimeterSpacing=0;targetPerimeterSpacing=0;endSize=10;exitX=1;exitY=0.75;exitDx=0;exitDy=0;" edge="1" parent="1" source="-zqufFChfOl44uhTxaMk-2">
          <mxGeometry relative="1" as="geometry">
            <mxPoint x="600" y="340" as="sourcePoint" />
            <mxPoint x="520" y="320" as="targetPoint" />
          </mxGeometry>
        </mxCell>
        <mxCell id="-zqufFChfOl44uhTxaMk-25" value="errors msg publishing" style="text;html=1;align=center;verticalAlign=middle;whiteSpace=wrap;rounded=0;" vertex="1" parent="1">
          <mxGeometry x="490" y="340" width="60" height="30" as="geometry" />
        </mxCell>
        <mxCell id="-zqufFChfOl44uhTxaMk-26" value="" style="rounded=0;orthogonalLoop=1;jettySize=auto;html=1;endArrow=halfCircle;endFill=0;endSize=6;strokeWidth=1;sketch=0;fontSize=12;curved=1;exitX=0;exitY=0.75;exitDx=0;exitDy=0;" edge="1" parent="1" source="-zqufFChfOl44uhTxaMk-16">
          <mxGeometry relative="1" as="geometry">
            <mxPoint x="640" y="330" as="sourcePoint" />
            <mxPoint x="520" y="320" as="targetPoint" />
          </mxGeometry>
        </mxCell>
        <mxCell id="-zqufFChfOl44uhTxaMk-28" value="" style="shape=module;align=left;spacingLeft=20;align=center;verticalAlign=top;whiteSpace=wrap;html=1;" vertex="1" parent="1">
          <mxGeometry x="770" y="260" width="30" height="50" as="geometry" />
        </mxCell>
        <mxCell id="-zqufFChfOl44uhTxaMk-29" value="&lt;div&gt;«component»&lt;/div&gt;Project file system" style="rounded=0;whiteSpace=wrap;html=1;" vertex="1" parent="1">
          <mxGeometry x="630" y="130" width="180" height="100" as="geometry" />
        </mxCell>
        <mxCell id="-zqufFChfOl44uhTxaMk-30" value="&lt;div&gt;«component»&lt;/div&gt;Visualizer" style="rounded=0;whiteSpace=wrap;html=1;" vertex="1" parent="1">
          <mxGeometry x="630" y="10" width="180" height="100" as="geometry" />
        </mxCell>
        <mxCell id="-zqufFChfOl44uhTxaMk-31" value="" style="rounded=0;orthogonalLoop=1;jettySize=auto;html=1;endArrow=halfCircle;endFill=0;endSize=6;strokeWidth=1;sketch=0;fontSize=12;curved=1;exitX=0;exitY=0.5;exitDx=0;exitDy=0;" edge="1" parent="1" source="-zqufFChfOl44uhTxaMk-30">
          <mxGeometry relative="1" as="geometry">
            <mxPoint x="620" y="255" as="sourcePoint" />
            <mxPoint x="600" y="60" as="targetPoint" />
          </mxGeometry>
        </mxCell>
        <mxCell id="-zqufFChfOl44uhTxaMk-32" value="" style="rounded=0;orthogonalLoop=1;jettySize=auto;html=1;endArrow=halfCircle;endFill=0;endSize=6;strokeWidth=1;sketch=0;fontSize=12;curved=1;exitX=0;exitY=0.5;exitDx=0;exitDy=0;" edge="1" parent="1" source="-zqufFChfOl44uhTxaMk-29">
          <mxGeometry relative="1" as="geometry">
            <mxPoint x="540" y="120" as="sourcePoint" />
            <mxPoint x="600" y="180" as="targetPoint" />
          </mxGeometry>
        </mxCell>
        <mxCell id="-zqufFChfOl44uhTxaMk-33" value="" style="endArrow=open;endSize=12;dashed=1;html=1;rounded=0;" edge="1" parent="1">
          <mxGeometry width="160" relative="1" as="geometry">
            <mxPoint x="600" y="60" as="sourcePoint" />
            <mxPoint x="520" y="220" as="targetPoint" />
          </mxGeometry>
        </mxCell>
        <mxCell id="-zqufFChfOl44uhTxaMk-34" value="" style="endArrow=open;endSize=12;dashed=1;html=1;rounded=0;" edge="1" parent="1">
          <mxGeometry width="160" relative="1" as="geometry">
            <mxPoint x="600" y="180" as="sourcePoint" />
            <mxPoint x="530" y="230" as="targetPoint" />
          </mxGeometry>
        </mxCell>
        <mxCell id="-zqufFChfOl44uhTxaMk-35" value="" style="endArrow=open;endSize=12;dashed=1;html=1;rounded=0;entryX=0.75;entryY=0;entryDx=0;entryDy=0;" edge="1" parent="1" target="-zqufFChfOl44uhTxaMk-13">
          <mxGeometry width="160" relative="1" as="geometry">
            <mxPoint x="600" y="270" as="sourcePoint" />
            <mxPoint x="540" y="240" as="targetPoint" />
          </mxGeometry>
        </mxCell>
        <mxCell id="-zqufFChfOl44uhTxaMk-37" style="rounded=0;orthogonalLoop=1;jettySize=auto;html=1;entryX=0.5;entryY=0;entryDx=0;entryDy=0;dashed=1;endArrow=none;endFill=0;dashPattern=8 8;" edge="1" parent="1" source="-zqufFChfOl44uhTxaMk-36" target="-zqufFChfOl44uhTxaMk-2">
          <mxGeometry relative="1" as="geometry" />
        </mxCell>
        <mxCell id="-zqufFChfOl44uhTxaMk-36" value="Working offline" style="shape=note;whiteSpace=wrap;html=1;backgroundOutline=1;darkOpacity=0.05;" vertex="1" parent="1">
          <mxGeometry x="370" y="10" width="95" height="70" as="geometry" />
        </mxCell>
        <mxCell id="-zqufFChfOl44uhTxaMk-39" value="" style="shape=module;align=left;spacingLeft=20;align=center;verticalAlign=top;whiteSpace=wrap;html=1;" vertex="1" parent="1">
          <mxGeometry x="770" y="140" width="30" height="50" as="geometry" />
        </mxCell>
        <mxCell id="-zqufFChfOl44uhTxaMk-40" value="" style="shape=module;align=left;spacingLeft=20;align=center;verticalAlign=top;whiteSpace=wrap;html=1;" vertex="1" parent="1">
          <mxGeometry x="770" y="20" width="30" height="50" as="geometry" />
        </mxCell>
      </root>
    </mxGraphModel>
  </diagram>
</mxfile>
